<svg xmlns="http://www.w3.org/2000/svg" width="23.844" height="62.951">
  <path d="M22.259 59.78h-1.21v-7.026h.336a.7225.7225 0 000-1.445h-.336V48.6h-5.446c-.354-.062-.524-.255-.635-.684a6.478 6.478 0 01.207-3.97 11.441 11.441 0 00.523-5.592q-.026-.205-.054-.41a9.6 9.6 0 01-.061-3.405 28.269 28.269 0 00.936-8.711c-.066-.782-.111-1.586-.155-2.362q-.02-.358-.041-.716a1.033 1.033 0 01.009-.266A4.258 4.258 0 0018.579 19c.078-.4.131-.791.182-1.173a10.553 10.553 0 01.3-1.631 12.323 12.323 0 00.248-4.74 2.592 2.592 0 00-1.691-2.2c-.455-.163-3.657-1.038-3.4-2.235a25.118 25.118 0 00.86-4.01c.025-1.078-.349-2.9-3.128-3.009h-.066C9.105.108 8.732 1.933 8.757 3.011a25.386 25.386 0 00.944 4.01c.261 1.2-3.026 2.073-3.482 2.236a2.592 2.592 0 00-1.691 2.2 12.329 12.329 0 00.247 4.74 10.553 10.553 0 01.3 1.632c.051.382.1.776.182 1.172a4.268 4.268 0 002.246 3.489 1.031 1.031 0 01.009.266l-.04.7c-.044.781-.09 1.59-.156 2.377a28.268 28.268 0 00.936 8.711 9.6 9.6 0 01-.06 3.406l-.054.41a11.438 11.438 0 00.523 5.593 6.477 6.477 0 01.207 3.97c-.111.429-.281.621-.635.684H2.787v2.715a.719.719 0 000 1.426v7.032H1.578a1.5855 1.5855 0 100 3.171h20.681a1.5855 1.5855 0 000-3.171zm-3.22-2.633H4.805v-3.515h14.233z" fill="#ffc107" opacity=".5"/>
</svg>
