<svg xmlns="http://www.w3.org/2000/svg" width="80" height="96" viewBox="0 0 80 96">
  <g id="Group_44" data-name="Group 44" transform="translate(-18 -1011)">
    <rect id="Rectangle_1501" data-name="Rectangle 1501" width="80" height="96" rx="5" transform="translate(18 1011)" fill="#e2e8f0"/>
    <path id="female_1_" data-name="female (1)" d="M52.312,31.678,45.456,30.3A1.572,1.572,0,0,1,44.2,28.767V26.978c6.846-.652,7.833-2.052,7.833-3.478,0-4.214-2.8-14-3.265-15.591-.056-2.46-.508-3.845-1.632-5.054a4.837,4.837,0,0,0-2.908-1.222,5.064,5.064,0,0,1-1.068-.254A11.057,11.057,0,0,0,37.868,0c-4.127.169-9.2,2.795-10.935,7.6-.125.448-3.1,11.045-3.1,15.9,0,2.027,2.294,3.1,7.833,3.585v1.683a1.572,1.572,0,0,1-1.26,1.535l-6.846,1.372A9.4,9.4,0,0,0,16,40.89v2.977A3.139,3.139,0,0,0,19.133,47h37.6a3.139,3.139,0,0,0,3.133-3.133V40.89a9.4,9.4,0,0,0-7.554-9.212Z" transform="translate(20 1035)" fill="#4a5568"/>
  </g>
</svg>
