<svg xmlns="http://www.w3.org/2000/svg" xmlns:xlink="http://www.w3.org/1999/xlink" width="98" height="114" viewBox="0 0 98 114">
  <defs>
    <filter id="Rectangle_1502" x="0" y="0" width="98" height="114" filterUnits="userSpaceOnUse">
      <feOffset dy="3" input="SourceAlpha"/>
      <feGaussianBlur stdDeviation="3" result="blur"/>
      <feFlood flood-opacity="0.161"/>
      <feComposite operator="in" in2="blur"/>
      <feComposite in="SourceGraphic"/>
    </filter>
  </defs>
  <g id="Group_41" data-name="Group 41" transform="translate(-9 -1117)">
    <g transform="matrix(1, 0, 0, 1, 9, 1117)" filter="url(#Rectangle_1502)">
      <rect id="Rectangle_1502-2" data-name="Rectangle 1502" width="80" height="96" rx="5" transform="translate(9 6)" fill="#e2e8f0"/>
    </g>
    <g id="male_1_" data-name="male (1)" transform="translate(-11.225 1145.156)">
      <path id="Path_64" data-name="Path 64" d="M83.266,245.56c-6-1.96-8.5-4.4-8.5-4.4l-.2.191a8.546,8.546,0,0,1-5.55,2.664h-.169a8.546,8.546,0,0,1-5.55-2.664l-.2-.191s-2.495,2.438-8.5,4.4c-8.86,3.31-6.2,16.78-6.2,16.884.279,1.5.442,2.016.583,2.074,8.9,3.961,31.005,3.961,39.9,0,.142-.058.3-.574.583-2.074C89.466,262.34,92.162,248.924,83.266,245.56Z" transform="translate(0 -215.407)" fill="#4a5568"/>
      <path id="Path_65" data-name="Path 65" d="M172.342,12.97l-.074-.081a6.171,6.171,0,0,1-.46-.43s.87-4.388.172-6.462C170.886,2.683,164.347.462,163.036.2c0,0-.8-.162-.849-.162a4.064,4.064,0,0,0-2.227.313c-.779.3-4.849,2.146-6,5.642-.7,2.075.172,6.462.172,6.462a6.168,6.168,0,0,1-.46.43l-.074.081c-.337.383-.254,1.581.115,2.828a6.469,6.469,0,0,0,.874,1.877c1.058,4.966,4.735,9.206,8.483,9.206s7.231-4.24,8.288-9.206a6.464,6.464,0,0,0,.874-1.877c.369-1.247.462-2.527.115-2.828Z" transform="translate(-94.103 0)" fill="#4a5568"/>
    </g>
  </g>
</svg>
